<!DOCTYPE svg PUBLIC "-//W3C//DTD SVG 20010904//EN" "http://www.w3.org/TR/2001/REC-SVG-20010904/DTD/svg10.dtd">
<svg version="1.0" xmlns="http://www.w3.org/2000/svg" width="1600px" height="1600px" viewBox="0 0 16000 16000" preserveAspectRatio="xMidYMid meet">
<g id="layer101" fill="#000000" stroke="none">
 <path d="M12925 13031 c-16 -5 -55 -14 -85 -21 -198 -47 -250 -237 -122 -446 l41 -67 -39 -45 c-79 -89 -63 -196 40 -271 l37 -27 -28 -34 c-16 -19 -29 -40 -29 -47 0 -7 -4 -13 -8 -13 -15 0 -54 -133 -59 -204 -7 -88 14 -176 62 -262 84 -150 214 -200 415 -160 112 23 120 28 120 76 0 48 -32 75 -80 68 -25 -4 -30 -2 -25 11 52 131 67 215 54 306 -17 122 -89 217 -217 285 -63 33 -122 89 -122 115 0 7 -2 20 -5 28 -5 11 14 15 102 20 142 8 205 28 265 88 55 55 78 119 78 220 0 192 -77 332 -203 372 -56 18 -140 21 -192 8z m132 -167 c51 -38 85 -108 91 -185 6 -83 -8 -121 -53 -149 -94 -58 -220 17 -269 161 -25 73 -16 121 30 167 34 34 36 34 104 30 50 -3 77 -9 97 -24z m-88 -870 c17 -14 45 -54 62 -89 26 -53 33 -82 38 -156 5 -76 4 -96 -11 -119 -32 -54 -104 -51 -169 7 -82 75 -107 209 -56 309 38 75 84 92 136 48z"/>
 <path d="M4133 12500 c-80 -18 -90 -59 -63 -262 23 -177 55 -414 70 -508 13 -90 14 -87 -25 -94 -38 -7 -69 -43 -63 -73 3 -15 19 -26 78 -53 29 -13 60 -86 70 -166 31 -223 58 -300 133 -378 65 -68 124 -73 178 -15 30 32 44 77 34 108 -3 11 -24 30 -46 43 -58 32 -107 111 -140 225 -16 54 -29 110 -29 124 0 36 28 58 74 56 29 -1 43 5 57 22 25 31 24 43 -8 75 -22 22 -33 26 -58 22 -36 -7 -59 12 -69 54 -3 14 -10 153 -16 310 -15 423 -20 489 -39 499 -25 13 -103 19 -138 11z"/>
 <path d="M6742 12483 c-101 -50 -131 -204 -66 -339 21 -44 58 -89 144 -174 135 -133 160 -176 160 -275 0 -82 -23 -115 -80 -115 -35 0 -46 7 -98 60 -62 62 -81 71 -102 45 -7 -8 -23 -15 -36 -15 -31 0 -41 -38 -20 -78 52 -100 195 -202 285 -202 59 0 135 41 168 90 l26 41 -6 320 c-3 176 -3 344 0 374 l6 54 43 -25 44 -26 16 38 c29 69 -5 163 -72 201 -46 27 -81 29 -120 8 -42 -22 -82 -18 -116 10 -24 20 -40 25 -86 25 -32 0 -72 -8 -90 -17z m113 -203 c45 -28 83 -80 106 -147 39 -114 16 -129 -81 -51 -50 39 -109 119 -116 157 -12 59 31 78 91 41z"/>
 <path d="M11166 12484 c-3 -9 -6 -244 -6 -524 l0 -509 26 -20 c29 -23 92 -28 125 -11 30 16 49 62 37 85 -7 13 2 9 23 -12 54 -50 106 -81 148 -88 78 -13 154 43 192 142 15 40 36 294 50 597 l12 269 -23 19 c-35 28 -131 25 -166 -6 l-28 -23 3 -234 c2 -242 -12 -484 -31 -506 -35 -42 -129 14 -174 103 l-29 59 -3 290 -3 290 -25 32 c-42 55 -115 82 -128 47z"/>
 <path d="M10035 12478 c-2 -7 -7 -202 -10 -433 -3 -231 -8 -457 -11 -502 l-5 -82 48 -6 c26 -3 68 -11 92 -16 29 -7 47 -7 54 0 10 10 11 990 0 1016 -10 27 -160 46 -168 23z"/>
 <path d="M5277 12428 c-15 -12 -15 -23 -1 -148 8 -74 19 -171 24 -215 5 -44 12 -168 16 -275 5 -161 10 -203 26 -242 32 -75 81 -97 132 -57 21 17 26 29 26 65 0 24 2 44 5 44 3 0 33 -28 68 -63 66 -67 144 -111 213 -123 53 -8 58 4 45 116 -11 101 -22 115 -91 111 -94 -5 -169 49 -216 156 -43 97 -80 381 -65 508 9 75 3 95 -31 119 -27 19 -127 21 -151 4z"/>
 <path d="M8150 12420 c-30 -30 -34 -64 -19 -163 13 -89 19 -484 10 -676 -3 -78 -2 -86 19 -103 26 -21 97 -23 151 -4 35 12 39 11 98 -24 102 -61 187 -61 246 0 34 35 56 38 95 10 77 -54 180 -65 229 -25 66 56 70 91 87 711 l7 271 -39 6 c-55 9 -152 9 -158 -1 -3 -5 2 -120 10 -258 16 -260 15 -397 -6 -476 -14 -53 -42 -88 -70 -88 -29 0 -90 59 -114 110 -19 42 -21 65 -23 345 -2 165 -5 309 -8 321 -6 27 -45 44 -101 44 -55 0 -100 -36 -90 -73 3 -12 13 -78 22 -147 22 -156 25 -562 6 -597 -32 -58 -117 -30 -157 52 -28 56 -33 102 -54 515 -5 96 -14 187 -19 201 -13 32 -57 69 -83 69 -11 0 -28 -9 -39 -20z"/>
 <path d="M10073 11119 c-45 -23 -41 -107 7 -159 24 -25 35 -30 77 -30 67 0 98 31 97 97 -1 64 -35 95 -106 100 -29 1 -63 -2 -75 -8z"/>
 <path d="M11095 11084 c-147 -21 -189 -31 -320 -76 -140 -49 -330 -137 -487 -227 -611 -349 -943 -580 -1222 -851 -123 -119 -234 -239 -289 -311 -66 -86 -197 -287 -197 -302 0 -3 24 -3 54 0 194 20 412 -107 476 -277 33 -87 33 -193 0 -281 -34 -90 -121 -178 -204 -203 -137 -43 -316 27 -378 148 -36 70 -67 319 -68 536 0 311 48 574 156 857 13 34 24 64 24 66 0 3 -19 10 -42 16 -24 5 -90 21 -148 35 -58 15 -141 35 -185 45 -44 11 -141 35 -215 54 l-135 35 85 39 c227 106 448 173 685 209 50 7 119 18 155 23 174 26 471 21 695 -13 50 -7 91 -12 93 -11 1 1 -28 31 -66 66 -227 210 -632 270 -1132 168 -128 -26 -268 -55 -425 -87 -171 -36 -269 -46 -438 -47 -97 0 -177 -2 -177 -4 0 -2 11 -27 24 -55 58 -124 90 -194 106 -232 l18 -41 -181 -6 c-99 -4 -253 -7 -342 -7 -89 0 -190 -3 -223 -6 -68 -8 -60 6 -82 -129 -18 -103 -17 -103 -52 -51 -125 189 -426 236 -708 109 -114 -51 -307 -222 -445 -394 -126 -157 -291 -339 -307 -339 -4 0 -8 7 -8 16 0 33 -54 174 -116 299 -147 302 -376 561 -658 745 -69 45 -313 170 -331 170 -4 0 41 -51 101 -112 350 -366 571 -746 619 -1068 65 -425 -110 -773 -452 -898 -37 -13 -79 -17 -183 -17 -125 1 -139 3 -194 28 -85 39 -153 93 -202 160 -54 73 -79 127 -103 226 -25 102 -30 156 -41 431 -11 289 -23 347 -106 515 -53 109 -145 202 -230 233 -84 30 -104 29 -104 -5 0 -27 18 -183 61 -543 63 -530 30 -771 -130 -931 -81 -80 -149 -111 -263 -117 -270 -14 -488 179 -571 508 -18 73 -21 112 -20 275 0 161 4 209 26 315 41 204 63 282 120 425 48 119 219 422 256 455 17 15 62 82 50 75 -208 -127 -438 -337 -588 -537 -196 -261 -328 -553 -350 -775 -18 -172 7 -296 85 -424 33 -55 175 -200 230 -235 16 -10 34 -23 41 -29 6 -5 48 -32 93 -60 45 -27 129 -80 188 -117 59 -37 150 -93 202 -126 52 -32 142 -88 200 -125 117 -73 159 -86 212 -64 41 17 48 23 188 147 58 52 138 122 176 156 38 34 103 91 144 127 l75 66 72 -78 c131 -143 277 -251 413 -308 55 -23 80 -27 166 -27 l101 -1 104 53 c130 65 183 95 187 105 2 4 8 7 13 7 8 0 116 67 129 80 3 3 31 25 62 48 85 65 191 181 236 258 39 69 82 178 82 211 0 10 10 0 21 -22 12 -22 40 -71 63 -110 22 -38 45 -78 51 -87 25 -44 95 -140 153 -210 117 -143 271 -267 407 -329 65 -29 219 -73 238 -66 6 2 -20 23 -58 46 -82 52 -217 184 -272 266 -89 133 -146 271 -172 419 -14 76 -14 242 0 326 66 414 377 751 716 777 223 17 389 -104 461 -337 27 -88 30 -103 47 -270 26 -252 17 -557 -22 -730 -9 -42 -51 -158 -74 -202 -58 -116 -163 -230 -264 -290 l-50 -29 215 6 c118 3 293 8 388 11 l174 6 -6 127 c-4 69 -11 189 -17 267 -6 77 -11 340 -12 585 -1 443 -1 444 25 559 33 149 76 238 150 316 49 51 142 114 152 103 2 -2 11 -35 20 -74 9 -38 26 -106 36 -150 11 -44 27 -114 35 -155 9 -41 20 -93 26 -115 13 -56 48 -286 64 -430 17 -146 19 -400 4 -498 -31 -207 -123 -377 -244 -454 -25 -15 -45 -32 -45 -37 0 -5 29 -6 68 -2 65 7 266 18 1257 70 487 26 572 35 640 65 81 36 152 117 191 216 14 39 19 74 18 155 -1 111 -15 162 -75 267 -50 87 -207 240 -306 298 -18 11 -33 22 -33 26 0 7 134 157 307 344 l74 80 -7 -40 c-4 -22 -10 -47 -15 -56 -4 -8 -13 -72 -20 -141 -47 -488 193 -961 587 -1157 110 -55 263 -91 385 -91 145 0 373 63 494 135 32 19 60 35 63 35 22 0 242 220 242 242 0 4 13 27 28 51 15 24 38 76 51 115 l24 71 35 -67 c142 -279 430 -496 732 -553 92 -17 290 -14 380 5 304 66 598 300 716 570 15 36 31 66 35 66 12 0 18 -106 9 -171 -10 -68 -47 -164 -81 -208 -55 -72 -78 -97 -125 -131 -44 -33 -107 -67 -154 -82 -31 -11 83 -17 378 -23 l302 -5 1 97 c1 54 4 237 8 406 l6 308 65 -83 c93 -119 325 -348 465 -459 251 -200 484 -343 750 -458 66 -29 129 -56 140 -61 42 -18 198 -70 212 -70 27 0 -250 343 -368 456 -61 58 -278 243 -309 262 -14 9 -52 36 -84 60 -80 58 -219 143 -324 199 -105 55 -111 60 -86 69 26 10 131 81 174 118 77 67 230 246 357 418 230 311 452 466 773 541 131 30 365 30 488 0 94 -23 95 -20 2 30 -289 154 -419 204 -613 233 -114 17 -123 17 -230 0 -128 -21 -215 -52 -307 -111 -74 -47 -111 -87 -242 -265 -190 -256 -464 -490 -753 -644 -27 -14 -52 -26 -55 -26 -3 0 -4 65 -2 144 7 256 -35 453 -144 677 -52 106 -97 176 -172 270 -61 76 -170 184 -177 177 -5 -5 32 -916 41 -1030 5 -53 3 -78 -4 -78 -6 0 -14 9 -17 20 -26 81 -201 315 -326 435 -306 294 -676 403 -994 293 -256 -88 -435 -251 -510 -467 -14 -39 -25 -84 -25 -100 0 -66 -12 -64 -52 11 -78 143 -232 271 -410 342 -155 61 -222 71 -488 71 -147 -1 -267 -5 -300 -12 -30 -7 -86 -15 -125 -19 l-70 -6 40 39 c41 40 226 191 280 229 228 159 470 292 670 368 39 15 81 32 95 37 108 46 428 130 568 150 45 6 82 15 82 19 0 13 -141 78 -205 95 -59 16 -260 28 -320 19z m-3114 -1044 c64 -232 123 -557 159 -870 6 -47 13 -218 16 -380 l6 -295 -23 35 c-63 99 -126 291 -155 470 -43 268 -53 421 -59 885 l-5 350 21 -60 c11 -33 29 -94 40 -135z m4406 -100 c92 -32 159 -86 249 -199 86 -108 145 -214 165 -297 18 -75 15 -258 -5 -333 -33 -121 -101 -234 -198 -326 -184 -175 -378 -238 -515 -167 -108 57 -232 202 -291 342 -52 125 -67 200 -66 340 1 143 21 235 81 360 52 109 170 225 268 262 90 34 96 35 183 37 49 1 91 -5 129 -19z m-1773 -85 c61 -29 150 -127 194 -213 68 -131 86 -207 86 -357 0 -115 -3 -139 -27 -210 -40 -118 -91 -199 -187 -296 -121 -122 -253 -189 -370 -189 -131 0 -158 29 -313 335 -106 208 -126 259 -139 342 -30 193 66 406 237 523 49 34 143 67 221 80 98 15 253 7 298 -15z"/>
 <path d="M10558 7875 c-4 -5 -209 -34 -374 -53 -34 -4 -110 -4 -170 2 -74 6 -154 5 -249 -3 -197 -16 -319 -14 -390 6 -70 19 -309 22 -388 4 -27 -6 -111 -14 -187 -18 -111 -5 -157 -2 -235 12 -91 17 -102 17 -198 2 -176 -28 -208 -30 -343 -13 -141 17 -122 20 -316 -35 -42 -11 -52 -11 -83 4 -44 21 -74 22 -103 1 -41 -28 -54 -70 -61 -203 -7 -115 -10 -131 -40 -190 -31 -61 -33 -71 -42 -226 -8 -140 -13 -176 -40 -256 -38 -117 -36 -172 11 -225 39 -44 39 -83 1 -177 -47 -120 -56 -168 -42 -229 14 -65 39 -117 86 -182 49 -67 48 -123 -1 -249 -47 -117 -49 -195 -11 -342 36 -142 38 -156 28 -290 -6 -66 -17 -214 -26 -330 -16 -215 -21 -261 -55 -565 -11 -96 -20 -192 -20 -212 l0 -37 78 39 c179 90 283 120 419 120 198 1 308 54 504 246 113 111 118 114 161 114 32 0 50 -6 63 -20 46 -51 116 -45 193 17 81 64 256 245 314 323 58 78 120 200 133 260 29 140 97 301 194 459 59 97 71 133 71 213 0 91 46 203 153 372 87 139 127 202 166 261 28 43 54 101 68 150 33 113 60 149 125 170 166 54 244 164 302 430 16 71 59 197 82 242 59 110 176 229 280 284 47 25 60 46 49 80 -9 28 -89 61 -107 44z m-2645 -99 c16 -12 24 -46 11 -46 -16 0 -83 44 -78 52 8 12 47 9 67 -6z m296 4 c19 -10 52 -83 71 -158 28 -111 140 -154 140 -54 0 26 10 46 45 84 34 38 45 58 45 82 0 47 33 60 111 45 58 -11 275 -7 346 7 28 5 33 3 38 -19 4 -13 0 -53 -9 -88 -8 -35 -21 -93 -27 -129 -15 -78 -35 -128 -82 -198 -24 -36 -39 -75 -47 -120 -18 -95 -50 -153 -95 -175 -55 -26 -93 -9 -135 61 -19 31 -96 116 -182 201 -82 80 -165 170 -185 199 -68 102 -102 229 -71 260 14 14 15 14 37 2z m-173 -8 c17 -11 31 -43 38 -87 22 -127 72 -209 240 -394 62 -68 140 -157 236 -266 74 -86 102 -145 108 -231 3 -46 0 -79 -8 -94 l-13 -24 -12 25 c-7 13 -23 63 -35 111 -32 121 -57 149 -205 222 -120 60 -185 108 -211 158 -9 17 -16 63 -17 121 l-2 92 -98 164 c-53 90 -97 169 -97 175 0 29 48 47 76 28z m-378 -33 l34 -11 -32 -20 c-23 -14 -30 -22 -22 -30 17 -17 59 0 94 37 42 47 81 47 154 -1 73 -49 138 -124 179 -209 34 -71 43 -103 66 -249 20 -126 46 -157 199 -233 141 -70 185 -109 230 -208 54 -118 89 -305 70 -376 -15 -54 -37 -81 -122 -153 -106 -89 -138 -149 -184 -341 -25 -104 -56 -174 -93 -217 l-37 -41 -38 92 c-22 50 -40 90 -42 88 -2 -2 1 -48 6 -103 5 -54 14 -151 20 -214 6 -63 8 -135 4 -160 -17 -129 -81 -399 -104 -439 -6 -12 -13 -7 -29 20 -12 19 -24 45 -27 59 -12 54 -16 56 -33 20 -23 -50 -22 -193 2 -239 9 -19 17 -51 17 -72 0 -73 -79 -129 -153 -108 -127 36 -188 -31 -227 -249 -12 -66 -37 -118 -78 -159 -24 -24 -147 -93 -165 -93 -8 0 -5 33 9 105 16 83 79 798 91 1030 5 97 2 123 -21 213 -14 57 -28 107 -31 112 -11 18 -7 161 5 192 18 44 50 89 59 84 9 -6 30 -96 34 -146 l3 -35 13 30 c15 34 4 113 -24 168 -9 18 -20 70 -24 115 -8 75 -12 90 -48 140 -64 92 -76 121 -77 187 0 50 7 73 37 133 20 39 37 84 38 100 1 58 18 -12 18 -80 1 -76 14 -88 32 -29 14 48 2 106 -37 178 -94 171 -98 193 -54 318 51 143 55 169 42 234 -14 67 -8 93 45 201 36 73 37 79 38 185 0 98 3 115 25 153 24 43 26 44 65 38 22 -4 55 -11 73 -17z m1188 -3001 c-21 -18 -69 -59 -105 -90 -75 -65 -121 -84 -170 -67 -30 11 -43 29 -20 29 6 0 44 32 84 71 72 70 74 71 142 78 114 14 112 15 69 -21z m-1044 -145 c40 -13 59 -14 90 -6 21 6 38 9 38 7 0 -13 -40 -92 -51 -100 -8 -6 -57 -29 -111 -52 -105 -46 -148 -53 -148 -24 0 25 68 163 88 178 22 17 34 17 94 -3z m129 -263 c37 -19 55 -37 47 -46 -10 -9 -206 -21 -256 -15 l-53 6 63 42 c58 40 67 42 112 37 27 -3 66 -14 87 -24z"/>
 </g>

</svg>